<svg xmlns="http://www.w3.org/2000/svg" viewBox="0 0 24 24"><defs><style>.cls-1{fill:none;stroke:#fff;stroke-linecap:round;stroke-linejoin:round;}</style></defs><title>contactAsset 16</title><g id="Layer_2" data-name="Layer 2"><g id="Layer_1-2" data-name="Layer 1"><path class="cls-1" d="M10.23,9a1.55,1.55,0,0,0,.11-2.18L8.79,5.3a1.55,1.55,0,0,0-2.18.11l-.94,1a2.37,2.37,0,0,0-.45,2.92,30.65,30.65,0,0,0,9.5,9.5,2.37,2.37,0,0,0,2.92-.45l.95-.94a1.55,1.55,0,0,0,.11-2.18l-1.55-1.55a1.55,1.55,0,0,0-2.18.11l-.57.58A31.37,31.37,0,0,1,9.65,9.6Z"/><path class="cls-1" d="M18,18c.5.5,1.56,5.5-6,5.5a11.49,11.49,0,1,1,9.49-5"/></g></g></svg>