<svg xmlns="http://www.w3.org/2000/svg" viewBox="0 0 45.13 24"><defs><style>.cls-1,.cls-2{fill:none;stroke:#fff;stroke-linejoin:round;}.cls-1{stroke-linecap:round;}</style></defs><title>directoryAsset 4</title><g id="Layer_2" data-name="Layer 2"><g id="Layer_1-2" data-name="Layer 1"><rect class="cls-1" x="24.25" y="8.5" width="20.38" height="15"/><path class="cls-1" d="M39,6a4.5,4.5,0,0,0-9,0V8.5h9Z"/><polyline class="cls-2" points="40.5 6.5 42.5 6.5 44.63 8.5"/><line class="cls-2" x1="31.5" y1="6.5" x2="37.5" y2="6.5"/><polyline class="cls-2" points="24.25 8.5 26.5 6.5 28.5 6.5"/><polygon class="cls-1" points="14.5 23.5 4.5 23.5 3.5 8.5 15.5 8.5 14.5 23.5"/><rect class="cls-1" x="1.75" y="5.5" width="15" height="3"/><line class="cls-1" x1="4" y1="5.5" x2="0.5" y2="0.5"/><path class="cls-1" d="M3.77,12.5A2.71,2.71,0,0,1,6.5,15a2.42,2.42,0,0,1-2.4,2.5"/></g></g></svg>