<?xml version="1.0" encoding="UTF-8" standalone="no"?>
<svg
   xmlns:dc="http://purl.org/dc/elements/1.1/"
   xmlns:cc="http://creativecommons.org/ns#"
   xmlns:rdf="http://www.w3.org/1999/02/22-rdf-syntax-ns#"
   xmlns:svg="http://www.w3.org/2000/svg"
   xmlns="http://www.w3.org/2000/svg"
   xmlns:sodipodi="http://sodipodi.sourceforge.net/DTD/sodipodi-0.dtd"
   xmlns:inkscape="http://www.inkscape.org/namespaces/inkscape"
   version="1.0"
   width="1496.25"
   height="199.75"
   viewBox="0 0 1197 159.8"
   preserveAspectRatio="xMidYMid meet"
   id="svg2"
   inkscape:version="0.48.4 r9939"
   sodipodi:docname="ooooooooo.svg">
  <title
     id="title2991">ElDorado logo</title>
  <defs
     id="defs28" />
  <sodipodi:namedview
     pagecolor="#ffffff"
     bordercolor="#666666"
     borderopacity="1"
     objecttolerance="10"
     gridtolerance="10"
     guidetolerance="10"
     inkscape:pageopacity="0"
     inkscape:pageshadow="2"
     inkscape:window-width="1600"
     inkscape:window-height="844"
     id="namedview26"
     showgrid="false"
     inkscape:zoom="0.56081513"
     inkscape:cx="692.34725"
     inkscape:cy="126.875"
     inkscape:window-x="-4"
     inkscape:window-y="-4"
     inkscape:window-maximized="1"
     inkscape:current-layer="svg2" />
  <metadata
     id="metadata4">
Created by potrace 1.11, written by Peter Selinger 2001-2013
<rdf:RDF>
  <cc:Work
     rdf:about="">
    <dc:format>image/svg+xml</dc:format>
    <dc:type
       rdf:resource="http://purl.org/dc/dcmitype/StillImage" />
    <dc:title>ElDorado logo</dc:title>
    <dc:date>21 - enero- 2015</dc:date>
    <dc:creator>
      <cc:Agent>
        <dc:title>EEIM user</dc:title>
      </cc:Agent>
    </dc:creator>
    <dc:rights>
      <cc:Agent>
        <dc:title></dc:title>
      </cc:Agent>
    </dc:rights>
    <dc:publisher>
      <cc:Agent>
        <dc:title>Inkscape</dc:title>
      </cc:Agent>
    </dc:publisher>
    <dc:source>eldorado.aero</dc:source>
    <dc:language>Español</dc:language>
    <dc:description>logo Aeropuerto Internacional El Dorado, es el principal y más importante aeropuerto de Colombia, ubicado en Bogotá, capital del país  y del departamento de Cundinamarca.</dc:description>
    <dc:contributor>
      <cc:Agent>
        <dc:title>
</dc:title>
      </cc:Agent>
    </dc:contributor>
  </cc:Work>
</rdf:RDF>
</metadata>
  <g
     transform="matrix(0.1,0,0,-0.1,-8.5589702,189.7564)"
     id="g6"
     style="fill:#ffd42a;stroke:none">
    <path
       d="M 0,1015 0,0 l 6105,0 6105,0 0,1015 0,1015 -6105,0 -6105,0 0,-1015 z m 12189,991 c 8,-10 10,-280 9,-1002 L 12195,15 6116,12 C 1630,11 34,13 24,21 12,31 10,202 10,1020 c 0,542 3,990 7,993 3,4 2741,7 6083,7 5108,0 6079,-2 6089,-14 z"
       id="path8"
       style="fill:#ffd42a"
       inkscape:connector-curvature="0" />
    <path
       d="m 2812,1773 c -62,-80 -66,-96 -70,-259 -4,-150 -4,-151 22,-182 15,-17 41,-35 59,-41 81,-27 528,-81 668,-81 l 79,0 0,29 c 0,16 -29,89 -65,163 -70,144 -88,204 -64,219 8,5 72,9 143,9 l 130,0 80,-83 c 45,-45 148,-151 229,-235 81,-83 160,-158 175,-166 17,-9 93,-18 214,-25 194,-11 332,-34 325,-54 -6,-19 -120,-36 -328,-50 l -197,-13 -56,-43 C 4126,937 4014,826 3908,714 l -193,-204 -120,0 c -125,0 -165,11 -165,47 0,8 30,78 66,154 47,101 64,148 62,172 l -3,32 -90,3 c -175,6 -659,-45 -703,-74 -24,-16 -24,-16 -20,-182 3,-143 7,-174 24,-212 41,-88 15,-83 447,-91 834,-16 1474,-7 1595,23 73,17 117,43 177,105 164,168 245,388 232,633 -10,189 -71,343 -186,472 -66,73 -125,116 -239,172 l -91,46 -930,0 -929,0 -30,-37 z"
       id="path10"
       style="fill:#ffd42a"
       inkscape:connector-curvature="0" />
    <path
       d="m 8486,1480 c -16,-5 -47,-26 -69,-47 -82,-79 -479,-631 -492,-686 -10,-37 -2,-79 16,-90 43,-27 111,13 202,121 l 27,32 410,0 410,0 23,-27 c 12,-16 45,-52 73,-80 45,-47 56,-53 92,-53 32,0 44,5 53,21 27,52 -16,128 -237,419 -192,254 -292,370 -330,386 -37,15 -133,17 -178,4 z m 112,-184 c 48,-25 142,-134 196,-227 41,-72 35,-74 -214,-74 -257,0 -256,-1 -198,93 52,85 121,175 154,201 32,25 28,25 62,7 z"
       id="path12"
       style="fill:#ffd42a"
       inkscape:connector-curvature="0" />
    <path
       d="m 610,1460 c -199,-5 -208,-7 -262,-33 -62,-30 -108,-87 -131,-161 -17,-57 -16,-365 1,-433 16,-61 68,-125 124,-154 78,-40 160,-50 453,-56 291,-6 455,4 520,32 62,25 71,105 15,132 -37,17 -237,32 -595,43 -234,7 -323,13 -332,23 -7,7 -14,35 -15,62 l -3,50 356,6 c 477,8 539,16 539,68 0,18 -12,38 -34,60 l -34,33 -163,9 c -90,4 -273,8 -405,9 -275,0 -273,-1 -258,73 l 9,42 60,6 c 33,4 170,8 305,9 320,2 528,13 566,31 23,11 30,22 32,49 5,59 -25,78 -143,89 -141,14 -366,18 -605,11 z"
       id="path14"
       style="fill:#ffd42a"
       inkscape:connector-curvature="0" />
    <path
       d="m 5733,1460 c -45,-5 -110,-16 -145,-26 -53,-15 -72,-27 -123,-78 -171,-171 -176,-420 -13,-592 104,-110 176,-132 458,-141 229,-7 340,5 427,48 74,35 149,114 190,197 54,110 40,304 -29,407 -32,45 -110,125 -138,140 -78,41 -427,66 -627,45 z m 518,-190 c 50,-14 85,-44 112,-93 33,-63 32,-195 -3,-256 -50,-88 -38,-86 -403,-89 -369,-3 -372,-3 -417,78 -37,66 -36,182 2,262 35,75 78,98 203,109 117,10 460,3 506,-11 z"
       id="path16"
       style="fill:#ffd42a"
       inkscape:connector-curvature="0" />
    <path
       d="m 6848,1460 c -42,-4 -93,-11 -113,-14 -61,-12 -65,-34 -65,-338 1,-385 15,-458 91,-458 58,0 79,54 79,208 0,87 3,104 17,109 9,4 72,2 139,-4 141,-13 175,-26 414,-152 201,-107 284,-143 342,-149 56,-5 78,8 78,47 0,35 -53,85 -148,141 -71,41 -117,84 -107,100 3,4 22,11 42,15 81,14 163,85 198,169 30,71 13,156 -42,217 -66,73 -128,92 -353,109 -151,11 -454,11 -572,0 z m 679,-186 c 51,-3 96,-11 102,-17 5,-7 11,-32 12,-57 l 4,-45 -389,-3 c -279,-1 -393,1 -402,9 -14,12 -20,110 -8,122 7,7 535,0 681,-9 z"
       id="path18"
       style="fill:#ffd42a"
       inkscape:connector-curvature="0" />
    <path
       d="m 9521,1459 c -181,-14 -184,-21 -185,-384 -1,-294 4,-342 42,-386 44,-53 78,-61 277,-67 203,-5 562,11 645,29 128,27 187,87 250,250 59,156 18,340 -99,452 -76,73 -146,96 -331,107 -162,11 -456,10 -599,-1 z m 641,-178 c 123,-11 169,-35 206,-106 22,-42 26,-64 27,-130 0,-122 -39,-184 -131,-205 -62,-15 -697,-13 -712,2 -13,13 -18,429 -5,441 9,10 501,8 615,-2 z"
       id="path20"
       style="fill:#ffd42a"
       inkscape:connector-curvature="0" />
    <path
       d="m 11074,1459 c -149,-14 -216,-41 -283,-114 -23,-25 -56,-74 -72,-109 -79,-168 -53,-333 73,-471 108,-118 189,-140 523,-140 310,0 369,16 477,132 130,140 150,339 52,509 -41,71 -134,150 -195,168 -111,32 -384,44 -575,25 z m 519,-189 c 85,-25 137,-107 137,-218 0,-76 -18,-129 -60,-173 -33,-35 -39,-37 -120,-44 -47,-4 -200,-5 -340,-3 -291,3 -296,5 -331,83 -56,127 -15,297 83,341 21,9 77,21 125,25 116,10 458,3 506,-11 z"
       id="path22"
       style="fill:#ffd42a"
       inkscape:connector-curvature="0" />
    <path
       d="m 1486,1411 c -52,-57 -39,-520 18,-629 8,-16 36,-48 61,-70 78,-69 225,-91 600,-91 254,0 396,11 431,34 22,14 25,22 22,68 -3,46 -6,53 -37,71 -30,17 -61,20 -255,27 -122,4 -302,8 -401,9 -154,0 -186,3 -222,20 -38,17 -44,24 -57,72 -9,33 -17,128 -21,253 -4,120 -11,210 -18,225 -16,34 -94,41 -121,11 z"
       id="path24"
       style="fill:#ffd42a"
       inkscape:connector-curvature="0" />
  </g>
</svg>
