<svg xmlns="http://www.w3.org/2000/svg" viewBox="0 0 24 24"><defs><style>.cls-1,.cls-2{fill:none;stroke:#fff;stroke-linejoin:round;}.cls-1{stroke-linecap:round;}</style></defs><title>loginAsset 15</title><g id="Layer_2" data-name="Layer 2"><g id="Layer_1-2" data-name="Layer 1"><rect class="cls-1" x="0.5" y="0.5" width="23" height="23" rx="4" ry="4"/><circle class="cls-2" cx="12" cy="12.5" r="2.63"/><path class="cls-2" d="M17.68,12.5a5.79,5.79,0,0,0-.12-1.19l1.37-.79-1.75-3-1.35.8a4.85,4.85,0,0,0-2-1.19V5.5h-3.5V7.09A5.05,5.05,0,0,0,8.22,8.28l-1.4-.8-1.75,3,1.37.79a5.78,5.78,0,0,0-.13,1.19,5.17,5.17,0,0,0,.13,1.19l-1.38.79,1.75,3,1.41-.8a5.05,5.05,0,0,0,2.09,1.19V19.5h3.5V17.91a4.85,4.85,0,0,0,2-1.19l1.37.8,1.74-3-1.38-.79A5.79,5.79,0,0,0,17.68,12.5Z"/></g></g></svg>