<svg xmlns="http://www.w3.org/2000/svg" viewBox="0 0 26.48 26.6"><defs><style>.cls-1,.cls-2{fill:red;}.cls-1,.cls-2,.cls-3{stroke:#fff;stroke-linejoin:round;}.cls-2,.cls-3{stroke-linecap:round;}.cls-3{fill:none;}</style></defs><title>nowifiAsset 8</title><g id="Layer_2" data-name="Layer 2"><g id="Layer_1-2" data-name="Layer 1"><circle class="cls-1" cx="20.41" cy="20.53" r="5.57"/><line class="cls-2" x1="22.38" y1="22.5" x2="18.44" y2="18.56"/><line class="cls-2" x1="18.44" y1="22.5" x2="22.38" y2="18.56"/><path class="cls-3" d="M3.32,8.41a10,10,0,0,1,14.11,0"/><path class="cls-3" d="M20.25,4.59A14,14,0,0,0,.5,4.59"/><path class="cls-3" d="M6.14,12.23a6,6,0,0,1,8.47,0"/><path class="cls-3" d="M17.43,8.41a10,10,0,0,0-14.11,0"/><path class="cls-3" d="M14.61,12.23a6,6,0,0,0-8.47,0"/><path class="cls-3" d="M12.37,17.46a2,2,0,1,1-2-2A2,2,0,0,1,12.37,17.46Z"/></g></g></svg>