<svg xmlns="http://www.w3.org/2000/svg" viewBox="0 0 26.48 26.61"><defs><style>.cls-1{fill:#090;}.cls-1,.cls-2{stroke:#fff;stroke-linejoin:round;}.cls-2{fill:none;stroke-linecap:round;}</style></defs><title>onwifiAsset 9</title><g id="Layer_2" data-name="Layer 2"><g id="Layer_1-2" data-name="Layer 1"><circle class="cls-1" cx="20.41" cy="20.53" r="5.57"/><path class="cls-2" d="M3.32,8.41a10,10,0,0,1,14.11,0"/><path class="cls-2" d="M20.25,4.59A14,14,0,0,0,.5,4.59"/><path class="cls-2" d="M6.14,12.23a6,6,0,0,1,8.47,0"/><path class="cls-2" d="M17.43,8.41a10,10,0,0,0-14.11,0"/><path class="cls-2" d="M14.61,12.23a6,6,0,0,0-8.47,0"/><path class="cls-2" d="M12.37,17.46a2,2,0,1,1-2-2A2,2,0,0,1,12.37,17.46Z"/><polyline class="cls-2" points="23.2 18.86 19.82 22.2 17.62 19.97"/></g></g></svg>